<svg id="Layer_1" data-name="Layer 1" xmlns="http://www.w3.org/2000/svg" xmlns:xlink="http://www.w3.org/1999/xlink" viewBox="0 0 314.47 314.03"><defs><style>.cls-1{fill:none;}.cls-2{fill:#f4f4f4;}.cls-3{clip-path:url(#clip-path);}.cls-4{fill:#ca5428;}.cls-5{fill:#282122;}.cls-6{fill:#e6b387;}.cls-7{fill:#9b3921;}.cls-8{fill:#333;}</style><clipPath id="clip-path" transform="translate(58.47 21.15)"><path class="cls-1" d="M29.29,61.91S14.91,181.48,128,225.77c113.09-44.3,98.7-163.86,98.7-163.86-36.86-21.3-98.7-32-98.7-32S66.16,40.61,29.29,61.91Z"/></clipPath></defs><rect id="Rectangle_11" data-name="Rectangle 11" class="cls-2" x="58.93" y="21.67" width="255.54" height="255.54" rx="50.7"/><g id="Group_28" data-name="Group 28"><g id="Group_199" data-name="Group 199"><g id="Group_197" data-name="Group 197"><g id="Group_24-2" data-name="Group 24-2"><g id="Group_196" data-name="Group 196"><g class="cls-3"><g id="Group_195" data-name="Group 195"><g id="Group_23" data-name="Group 23"><g id="Group_22" data-name="Group 22"><g id="Group_21" data-name="Group 21"><g id="Group_5" data-name="Group 5"><g id="Group_2" data-name="Group 2"><g id="Group_1" data-name="Group 1"><circle id="Ellipse_1" data-name="Ellipse 1" class="cls-4" cx="147.52" cy="147.61" r="115.54"/></g></g><g id="Group_4" data-name="Group 4"><g id="Group_3" data-name="Group 3"><path id="Path_1" data-name="Path 1" class="cls-5" d="M162.68,42.17a111.92,111.92,0,1,0,10.66,157.92h0A112.05,112.05,0,0,0,162.68,42.17Z" transform="translate(58.47 21.15)"/></g></g></g><g id="Group_7" data-name="Group 7"><g id="Group_6" data-name="Group 6"><path id="Path_2" data-name="Path 2" class="cls-4" d="M240,59.8A159.61,159.61,0,1,0,41.85,286.68,166.92,166.92,0,0,0,240,59.8Z" transform="translate(58.47 21.15)"/></g></g><g id="Group_8" data-name="Group 8"><path id="Path_3" data-name="Path 3" class="cls-6" d="M68.47,179.73s46.83-26.84,69.17-30c16.54-2.32,24.49,2.53,24.49,2.53s-16.75.93-29.92,9-51.06,28.82-51.06,28.82l-4.45-3.3" transform="translate(58.47 21.15)"/></g><g id="Group_9" data-name="Group 9"><path id="Path_4" data-name="Path 4" class="cls-6" d="M93.17,40.4a206.79,206.79,0,0,1,32.78,25c15.31,14.66,20.28,21.2,35.58,27.07a49.21,49.21,0,0,1-20.27-5.82c-10.21-5.6-21.57-18-32.61-24.38S81.31,45,81.31,45Z" transform="translate(58.47 21.15)"/></g><g id="Group_10" data-name="Group 10"><path id="Path_5" data-name="Path 5" class="cls-6" d="M131,229.66C36,170.29,42.52,69.44,42.52,69.44,88.53,45.82,128,29.93,128,29.93l-8.87-16.16L-21.78,49.31s-20.95,122.22,37,164.12,140.29,42.73,140.29,42.73Z" transform="translate(58.47 21.15)"/></g><g id="Group_11" data-name="Group 11"><path id="Path_6" data-name="Path 6" class="cls-6" d="M37.83,96.56s71.79,2,126.89,24c0,0-87.85-11-102.51-10.21s-20.59,1.48-20.59,1.48l-3.78-9.71" transform="translate(58.47 21.15)"/></g><g id="Group_12" data-name="Group 12"><path id="Path_7" data-name="Path 7" class="cls-7" d="M240,59.8a159.32,159.32,0,0,0-33.93-41.58q-4.67-4.08-9.56-7.73C179.1,2.78,160.9-5.1,160.9-5.1L124.5,20.41s49,45.59,44.57,103.77a182.73,182.73,0,0,1-46.28,108.88s56.82,15,64,12.25c3.68-1.41,18.25-9.37,31.85-17A166.87,166.87,0,0,0,240,59.8Z" transform="translate(58.47 21.15)"/></g><g id="Group_14" data-name="Group 14"><g id="Group_13" data-name="Group 13"><path id="Path_8" data-name="Path 8" class="cls-8" d="M-26.68,123.92l-1.74-7a379,379,0,0,1,145.91-6.2c42,6.09,101.88,25.07,119.35,33.93l3.83,9.32C187.65,130.16,74.09,97.3-26.68,123.92Z" transform="translate(58.47 21.15)"/></g></g><g id="Group_16" data-name="Group 16"><g id="Group_15" data-name="Group 15"><path id="Path_9" data-name="Path 9" class="cls-8" d="M118.81,241.86l-5-5.22c32.76-31.61,49.9-68,50.92-108.06,1.52-59.33-27.62-93.76-52.34-112.18l4.34-5.82C142.79,30,173.55,66.33,172,128.76a149.38,149.38,0,0,1-17.22,65.94A185,185,0,0,1,118.81,241.86Z" transform="translate(58.47 21.15)"/></g></g><g id="Group_18" data-name="Group 18"><g id="Group_17" data-name="Group 17"><path id="Path_10" data-name="Path 10" class="cls-8" d="M3.66,53.42,0,47.16c20.57-12,46.75-16.23,68.33-10.92,22.6,5.57,41,20.69,58.71,35.31l4.53,3.72C143.41,85,157.37,95.13,173,93c9.31-1.24,13.59-8.73,15-17.33,1.76-11,1.34-22.66,1.69-33.8a17.67,17.67,0,0,0-.44-5.66,14.78,14.78,0,0,1-.91-3.11,4,4,0,0,1,7-2.88,8,8,0,0,1,1.31,5.24l.15,10C197,62.77,200,100.23,174,100.23c-17.67,2.37-33.05-7.9-47-19.34l-4.54-3.74C105.29,63,87.59,48.46,66.58,43.28,46.78,38.41,22.66,42.29,3.66,53.42Z" transform="translate(58.47 21.15)"/></g></g><g id="Group_20" data-name="Group 20"><g id="Group_19" data-name="Group 19"><path id="Path_11" data-name="Path 11" class="cls-8" d="M6.75,211.12l1-7.18c34.92,4.76,66.28-13.8,94-30.17,24.54-14.52,45.73-27.07,64.41-20.35a34.87,34.87,0,0,1,20.82,19.45c4.54,10.92,2.13,21.35,3.09,32.68a4.43,4.43,0,0,1-.41,2.93,3.59,3.59,0,0,1-3.27,1.12,10.82,10.82,0,0,0-3.59-.06c0-18.95,2.66-41.48-19.09-49.29-15.47-5.56-35.3,6.17-58.26,19.76C76.69,197,44.17,216.22,6.75,211.12Z" transform="translate(58.47 21.15)"/></g></g></g></g></g></g></g></g></g><g id="Group_25" data-name="Group 25"><path id="Path_13" data-name="Path 13" class="cls-8" d="M128,29.93s61.83,10.68,98.7,32c0,0,14.39,119.57-98.7,163.87C14.9,181.47,29.29,61.9,29.29,61.9c36.87-21.3,98.71-32,98.71-32m0-4.79-.81.14c-.63.11-15.89,2.77-35.93,8.09-27,7.18-48.68,15.41-64.33,24.45l-2,1.18-.28,2.35a181.8,181.8,0,0,0,7.1,67.24,156,156,0,0,0,29.53,55.92c16.61,19.9,38.49,35.27,65,45.67l1.72.68,1.72-.68c26.55-10.4,48.43-25.76,65-45.67a156,156,0,0,0,29.53-55.92,181.8,181.8,0,0,0,7.1-67.24L231.11,59l-2-1.18c-15.65-9-37.3-17.27-64.33-24.45-20-5.32-35.3-8-35.94-8.09l-.8-.14Z" transform="translate(58.47 21.15)"/></g></g></g></g></svg>